<?xml version="1.0" encoding="UTF-8"?>
<svg width="250px" height="48.540307px" viewBox="0 0 250 48.540307" version="1.1" xmlns="http://www.w3.org/2000/svg" xmlns:xlink="http://www.w3.org/1999/xlink">
    <title>trustwell-logo-header</title>
    <g id="Designs" stroke="none" stroke-width="1" fill="none" fill-rule="evenodd">
        <g id="Design-/-Home" transform="translate(-195.000000, -60.000000)" fill-rule="nonzero">
            <g id="trustwell-logo-header" transform="translate(195.000000, 60.000000)">
                <polygon id="Path" fill="#003F70" points="10.2828808 43.4249948 10.2828808 14.7420861 0 14.7420861 0 8.46552245 27.9571266 8.46552245 27.9571266 14.7420861 17.7671459 14.7420861 17.7671459 43.4249948 10.2828808 43.4249948"></polygon>
                <path d="M42.6992127,24.8856167 C39.4128713,24.5953039 36.1787863,25.4662424 34.0536963,27.1558632 L34.0536963,43.430801 L26.7610377,43.430801 L26.7610377,18.266484 L32.9911513,18.266484 L33.5195206,22.2263511 C35.2091414,19.7644982 37.5780942,17.7381146 41.4392549,17.7381146 C41.8282741,17.7381146 42.2579372,17.7845646 42.6934064,17.7845646 L42.6934064,24.8856167 L42.6992127,24.8856167 Z" id="Path" fill="#003F70"></path>
                <path d="M45.3991221,18.266484 L52.6917807,18.266484 L52.6917807,34.1524026 C52.6917807,36.8581183 53.5627192,38.0658197 55.8794157,38.0658197 C57.7606429,38.0658197 59.6941264,36.9568247 60.657965,36.0858862 L60.657965,18.266484 L67.9506236,18.266484 L67.9506236,43.4249948 L61.67406,43.4249948 L61.1456906,40.7192791 C59.3573635,42.7456627 56.5587477,43.9533641 53.1272499,43.9533641 C47.9596814,43.9533641 45.3991221,41.1547484 45.3991221,35.5981606 L45.3991221,18.2606777 L45.3991221,18.266484 Z" id="Path" fill="#003F70"></path>
                <path d="M92.1162645,24.4036974 L86.1300137,26.2849246 C85.502938,24.1598346 84.440393,22.8592331 81.7811273,22.8592331 C79.7024874,22.8592331 78.5934923,23.6314653 78.5934923,25.0830295 C78.5934923,26.9178066 80.7185823,27.3068258 83.7146109,27.8351952 C88.1099473,28.6074274 92.5517337,29.571266 92.5517337,35.5110667 C92.5517337,41.4508675 87.674478,44.0114267 81.4908145,44.0114267 C75.307151,44.0114267 71.6375967,41.259261 70.7724644,37.1077874 L76.7122651,35.1743038 C77.2928908,37.1077874 78.3031795,38.9890146 81.7346773,38.9890146 C84.1965302,38.9890146 85.3577815,38.1703324 85.3577815,36.6200618 C85.3577815,34.7388346 83.6217108,34.4485217 80.6721323,33.9143461 C76.2767959,33.0956639 71.5911466,32.0795689 71.5911466,25.9481617 C71.5911466,20.3973802 76.4684024,17.7381146 82.0714402,17.7381146 C87.674478,17.7381146 90.9085631,20.1999675 92.1162645,24.4036974 L92.1162645,24.4036974 Z" id="Path" fill="#003F70"></path>
                <path d="M110.342105,42.2172934 C109.087953,43.0359756 106.138375,44.0056205 102.956546,44.0056205 C97.690271,44.0056205 94.9381053,41.5902176 94.9381053,35.8420234 L94.9381053,10.8344752 L102.230764,9.8706366 L102.230764,18.2722902 L108.896347,18.2722902 L108.896347,23.5850152 L102.230764,23.5850152 L102.230764,34.8375409 C102.230764,37.0613373 102.85784,38.2167824 105.174536,38.2167824 C106.6261,38.2167824 108.362171,37.6361567 109.32601,37.055531 L110.342105,42.2230996 L110.342105,42.2172934 Z" id="Path" fill="#003F70"></path>
                <polygon id="Path" fill="#003F70" points="118.575377 43.4249948 111.137562 18.266484 118.43022 18.266484 123.017163 35.9407297 123.11587 35.9407297 127.557656 18.266484 134.705158 18.266484 139.146945 35.8420234 139.292101 35.8420234 143.687438 18.266484 150.78849 18.266484 143.304225 43.4249948 135.094177 43.4249948 131.035604 27.0049005 130.936898 27.0049005 127.220893 43.4249948 118.575377 43.4249948"></polygon>
                <path d="M151.374922,30.9183176 C151.374922,21.8373319 156.925703,17.7323083 163.689992,17.7323083 C171.319414,17.7323083 174.507049,22.3657013 174.507049,29.368047 C174.507049,30.1867292 174.460599,31.7834498 174.361892,32.6543884 L159.056599,32.6543884 C159.201756,36.805862 160.937827,38.3503263 164.125462,38.3503263 C166.732471,38.3503263 167.748566,36.8987621 168.230485,34.7794784 L174.361892,36.2774926 C173.444504,40.9631419 169.676243,44.0056205 163.689992,44.0056205 C154.37095,44.0056205 151.374922,37.7290568 151.374922,30.9183176 L151.374922,30.9183176 Z M166.970527,28.0209954 C166.970527,24.3978912 165.66412,22.9985833 163.300973,22.9985833 C161.222333,22.9985833 159.19595,24.3514411 159.1495,28.0209954 L166.970527,28.0209954 L166.970527,28.0209954 Z" id="Shape" fill="#003F70"></path>
                <polygon id="Path" fill="#003F70" points="185.713124 43.4249948 178.420466 43.4249948 178.420466 6.96750819 185.713124 6.96750819 185.713124 43.4249948"></polygon>
                <polygon id="Path" fill="#003F70" points="198.039808 43.4249948 190.747149 43.4249948 190.747149 6.96750819 198.039808 6.96750819 198.039808 43.4249948"></polygon>
                <g id="Group" transform="translate(208.758158, 0.000000)" fill="#00B1B3">
                    <polygon id="Path" opacity="0.6" points="2.47927166 39.0412709 20.234805 16.7684697 38.3096825 39.0354646 30.9589614 43.0533943 20.2464175 22.539889 9.73709269 43.0301693"></polygon>
                    <polygon id="Path" opacity="0.35" points="13.2963281 44.8301089 20.234805 26.1049307 27.5855262 44.6675337 20.3102864 48.540307"></polygon>
                    <polygon id="Path" opacity="0.8" points="0 35.1162413 20.234805 14.4343545 41.2418422 35.0814037 41.2418422 25.3501173 20.234805 8.11134078 0 25.3501173"></polygon>
                    <polygon id="Path" points="0 19.7354669 20.234805 5.87012565 41.2418422 19.7180482 41.2418422 11.4789697 20.234805 0 0 11.4499385"></polygon>
                </g>
            </g>
        </g>
    </g>
</svg>